<?xml version="1.0" encoding="UTF-8" standalone="no"?>
<!-- Created with Inkscape (http://www.inkscape.org/) -->

<svg
   width="55.587502mm"
   height="70.587502mm"
   viewBox="0 0 55.587502 70.587502"
   version="1.1"
   id="svg5"
   inkscape:version="1.1.1 (c3084ef, 2021-09-22)"
   sodipodi:docname="utaac-logo-small.svg"
   xmlns:inkscape="http://www.inkscape.org/namespaces/inkscape"
   xmlns:sodipodi="http://sodipodi.sourceforge.net/DTD/sodipodi-0.dtd"
   xmlns="http://www.w3.org/2000/svg"
   xmlns:svg="http://www.w3.org/2000/svg">
  <sodipodi:namedview
     id="namedview7"
     pagecolor="#ffffff"
     bordercolor="#666666"
     borderopacity="1.0"
     inkscape:pageshadow="2"
     inkscape:pageopacity="0.0"
     inkscape:pagecheckerboard="0"
     inkscape:document-units="mm"
     showgrid="false"
     fit-margin-top="3"
     fit-margin-left="3"
     fit-margin-right="3"
     fit-margin-bottom="3"
     inkscape:zoom="0.35355339"
     inkscape:cx="69.296465"
     inkscape:cy="96.166522"
     inkscape:window-width="1572"
     inkscape:window-height="970"
     inkscape:window-x="0"
     inkscape:window-y="25"
     inkscape:window-maximized="0"
     inkscape:current-layer="layer1" />
  <defs
     id="defs2" />
  <g
     inkscape:label="Layer 1"
     inkscape:groupmode="layer"
     id="layer1"
     transform="translate(-82.20625,-102.20625)">
    <path
       id="rect858"
       style="fill:#c59fff;fill-opacity:1;stroke:#000000;stroke-width:3.175;stroke-linecap:round;stroke-linejoin:round;stroke-miterlimit:4;stroke-dasharray:none;stroke-opacity:1"
       d="m 86,106 h 28 v 13 h 20 v 50 H 86 Z"
       sodipodi:nodetypes="ccccccc" />
    <ellipse
       style="fill:#000000;fill-opacity:0.557522;stroke:#000000;stroke-width:0.749705;stroke-linecap:round;stroke-linejoin:round;stroke-miterlimit:4;stroke-dasharray:none;stroke-opacity:1"
       id="path1268"
       cx="109.99603"
       cy="164.20401"
       rx="2.1251473"
       ry="2.1251476" />
    <rect
       style="fill:#6000a2;fill-opacity:1;stroke:#000000;stroke-width:1.16652;stroke-linecap:round;stroke-linejoin:round;stroke-miterlimit:4;stroke-dasharray:none;stroke-opacity:1"
       id="rect1568"
       width="9.4671087"
       height="0.71716684"
       x="95.992592"
       y="110.26275"
       ry="0.35858342" />
    <rect
       style="fill:#6000a2;fill-opacity:1;stroke:#000000;stroke-width:0.936678;stroke-linecap:round;stroke-linejoin:round;stroke-miterlimit:4;stroke-dasharray:none;stroke-opacity:1"
       id="rect1652"
       width="1.9990072"
       height="1.0626538"
       x="108.61818"
       y="110.08993"
       ry="0.53132689" />
    <path
       d="m 90.675399,133.15559 h 0.900042 v 6.29992 c 0,0.99268 0.80731,1.79998 1.800011,1.79998 h 10.800218 c 0.99273,0 1.80005,-0.8073 1.80005,-1.79998 v -6.29992 h 0.9 a 0.900018,0.89999043 0 0 0 0.6363,-1.5363 l -8.100154,-8.09992 a 0.899118,0.89909043 0 0 0 -1.272616,0 l -8.100163,8.09992 a 0.900018,0.89999043 0 0 0 0.636312,1.5363 z m 6.300149,6.29992 v -4.49995 h 3.600052 v 4.49995 z m 1.800011,-14.02727 5.400111,5.39995 v 4.12737 l 9.1e-4,4.49995 h -1.80093 v -4.49995 c 0,-0.99267 -0.80734,-1.79997 -1.80005,-1.79997 h -3.600052 c -0.992736,0 -1.800048,0.8073 -1.800048,1.79997 v 4.49995 h -1.800048 v -8.62732 z"
       id="path2353"
       style="stroke-width:0.900004" />
    <path
       d="m 120.86075,125.39333 a 5.3279816,5.9059744 0 0 0 -3.60617,-1.55852 5.3622743,5.9439871 0 0 0 -3.80195,1.75856 c -2.12342,2.36382 -2.12253,6.06107 0.002,8.41481 l 6.61667,7.33445 c 0.15359,0.29906 0.4494,0.49218 0.78963,0.49218 a 0.89341154,0.99033106 0 0 0 0.71472,-0.40911 l 6.69154,-7.41752 c 2.12435,-2.35476 2.12435,-6.05099 -0.001,-8.41879 a 5.3586641,5.9399855 0 0 0 -3.79834,-1.75458 5.3297865,5.9079752 0 0 0 -3.60613,1.55852 z m 6.12842,1.61053 c 1.41053,1.57154 1.41142,4.02638 0.001,5.58988 l -6.13022,6.79523 -6.13026,-6.79523 c -1.40962,-1.5635 -1.4087,-4.01834 -0.002,-5.58587 0.68588,-0.75626 1.58288,-1.17242 2.52591,-1.17242 0.94305,0 1.83648,0.41616 2.5169,1.17042 l 0.45125,0.50016 a 0.90153345,0.99933408 0 0 0 1.27604,0 l 0.45121,-0.50016 c 1.36449,-1.50953 3.67651,-1.50551 5.03919,-0.002 z"
       id="path2400"
       style="stroke-width:0.950123" />
    <g
       id="g2561"
       transform="matrix(1.125,0,0,0.9,85.505827,142.64693)">
      <circle
         cx="12"
         cy="4"
         r="2"
         id="circle2549" />
      <path
         d="M 15,22 V 9 h 5 V 7 H 4 v 2 h 5 v 13 h 2 v -7 h 2 v 7 z"
         id="path2551" />
    </g>
    <path
       d="m 117.91503,160.07257 1.89746,1.89742 8.99994,-9 -8.99994,-9 -1.89746,1.89742 5.76072,5.76072 h -12.86332 v 2.68372 h 12.86332 z"
       id="path2587"
       style="stroke-width:1.34188" />
  </g>
</svg>
