<?xml version="1.0" encoding="UTF-8" standalone="no"?>
<!-- Created with Inkscape (http://www.inkscape.org/) -->

<svg
   width="55.587502mm"
   height="70.587502mm"
   viewBox="0 0 55.587502 70.587502"
   version="1.1"
   id="svg5"
   inkscape:version="1.1.1 (c3084ef, 2021-09-22)"
   sodipodi:docname="utaac-logo.svg"
   xmlns:inkscape="http://www.inkscape.org/namespaces/inkscape"
   xmlns:sodipodi="http://sodipodi.sourceforge.net/DTD/sodipodi-0.dtd"
   xmlns="http://www.w3.org/2000/svg"
   xmlns:svg="http://www.w3.org/2000/svg">
  <sodipodi:namedview
     id="namedview7"
     pagecolor="#ffffff"
     bordercolor="#666666"
     borderopacity="1.0"
     inkscape:pageshadow="2"
     inkscape:pageopacity="0.0"
     inkscape:pagecheckerboard="0"
     inkscape:document-units="mm"
     showgrid="false"
     fit-margin-top="3"
     fit-margin-left="3"
     fit-margin-right="3"
     fit-margin-bottom="3"
     inkscape:zoom="1"
     inkscape:cx="70.5"
     inkscape:cy="106"
     inkscape:window-width="1572"
     inkscape:window-height="970"
     inkscape:window-x="0"
     inkscape:window-y="25"
     inkscape:window-maximized="0"
     inkscape:current-layer="layer1" />
  <defs
     id="defs2" />
  <g
     inkscape:label="Layer 1"
     inkscape:groupmode="layer"
     id="layer1"
     transform="translate(-82.20625,-102.20625)">
    <path
       id="rect858"
       style="fill:#e3d0ff;fill-opacity:1;stroke:#000000;stroke-width:1.5875;stroke-linecap:round;stroke-linejoin:round;stroke-miterlimit:4;stroke-dasharray:none;stroke-opacity:1"
       d="m 86,106 h 28 v 13 h 20 v 50 H 86 Z"
       sodipodi:nodetypes="ccccccc" />
    <rect
       style="fill:#fcfcfc;fill-opacity:0.30531;stroke:#000000;stroke-width:0.996956;stroke-linecap:round;stroke-linejoin:round;stroke-miterlimit:4;stroke-dasharray:none;stroke-opacity:0.469027"
       id="rect1100"
       width="13.04985"
       height="12.003043"
       x="88.359482"
       y="121.27979"
       ry="1.5875005" />
    <rect
       style="fill:#4f83ff;fill-opacity:0.30531;stroke:#000000;stroke-width:0.996956;stroke-linecap:round;stroke-linejoin:round;stroke-miterlimit:4;stroke-dasharray:none;stroke-opacity:0.469027"
       id="rect1182"
       width="13.04985"
       height="12.003043"
       x="118.65548"
       y="121.27979"
       ry="1.984375" />
    <rect
       style="fill:#70fe59;fill-opacity:0.30531;stroke:#000000;stroke-width:0.996956;stroke-linecap:round;stroke-linejoin:round;stroke-miterlimit:4;stroke-dasharray:none;stroke-opacity:0.469027"
       id="rect1184"
       width="13.04985"
       height="12.003043"
       x="103.44668"
       y="121.27979"
       ry="1.5875" />
    <rect
       style="fill:#fcff38;fill-opacity:0.30531;stroke:#000000;stroke-width:0.996956;stroke-linecap:round;stroke-linejoin:round;stroke-miterlimit:4;stroke-dasharray:none;stroke-opacity:0.469027"
       id="rect1186"
       width="13.04985"
       height="12.003043"
       x="88.359482"
       y="135.03801"
       ry="1.7197917" />
    <rect
       style="fill:#4f83ff;fill-opacity:0.30531;stroke:#000000;stroke-width:0.996956;stroke-linecap:round;stroke-linejoin:round;stroke-miterlimit:4;stroke-dasharray:none;stroke-opacity:0.469027"
       id="rect1188"
       width="13.04985"
       height="12.003043"
       x="118.65548"
       y="135.03801"
       ry="1.5875" />
    <rect
       style="fill:#70fe59;fill-opacity:0.30531;stroke:#000000;stroke-width:0.996956;stroke-linecap:round;stroke-linejoin:round;stroke-miterlimit:4;stroke-dasharray:none;stroke-opacity:0.469027"
       id="rect1190"
       width="13.04985"
       height="12.003043"
       x="103.44668"
       y="135.03801"
       ry="1.7197917" />
    <rect
       style="fill:#f8ff37;fill-opacity:0.30531;stroke:#000000;stroke-width:0.996956;stroke-linecap:round;stroke-linejoin:round;stroke-miterlimit:4;stroke-dasharray:none;stroke-opacity:0.469027"
       id="rect1192"
       width="13.04985"
       height="12.003043"
       x="88.359482"
       y="148.79616"
       ry="1.4552083" />
    <rect
       style="fill:#fcfcfc;fill-opacity:0.30531;stroke:#000000;stroke-width:0.996956;stroke-linecap:round;stroke-linejoin:round;stroke-miterlimit:4;stroke-dasharray:none;stroke-opacity:0.469027"
       id="rect1194"
       width="13.04985"
       height="12.003043"
       x="118.65548"
       y="148.79616"
       ry="1.8520833" />
    <rect
       style="fill:#70fe59;fill-opacity:0.30531;stroke:#000000;stroke-width:0.996956;stroke-linecap:round;stroke-linejoin:round;stroke-miterlimit:4;stroke-dasharray:none;stroke-opacity:0.469027"
       id="rect1196"
       width="13.04985"
       height="12.003043"
       x="103.44668"
       y="148.79616"
       ry="1.3229166" />
    <circle
       style="fill:#ffffff;fill-opacity:0.557522;stroke:#000000;stroke-width:0.529167;stroke-linecap:round;stroke-linejoin:round;stroke-miterlimit:4;stroke-dasharray:none;stroke-opacity:1"
       id="path1268"
       cx="110.31895"
       cy="165.58524"
       r="1.5" />
    <rect
       style="fill:#6000a2;fill-opacity:1;stroke:#000000;stroke-width:0.79375;stroke-linecap:round;stroke-linejoin:round;stroke-miterlimit:4;stroke-dasharray:none;stroke-opacity:1"
       id="rect1568"
       width="9.7111359"
       height="0.32370454"
       x="97.922874"
       y="108.43068"
       ry="0.16185227" />
    <rect
       style="fill:#6000a2;fill-opacity:1;stroke:#000000;stroke-width:0.637354;stroke-linecap:round;stroke-linejoin:round;stroke-miterlimit:4;stroke-dasharray:none;stroke-opacity:1"
       id="rect1652"
       width="2.0505342"
       height="0.47964549"
       x="109.24548"
       y="108.35268"
       ry="0.23982275" />
    <path
       d="m 90.754645,127.67637 h 0.450021 v 3.14996 c 0,0.49634 0.403655,0.89999 0.900006,0.89999 h 5.400109 c 0.496369,0 0.900024,-0.40365 0.900024,-0.89999 v -3.14996 h 0.450005 a 0.45000906,0.44999519 0 0 0 0.31815,-0.76815 l -4.050078,-4.04996 a 0.44955906,0.44954519 0 0 0 -0.636311,0 l -4.050082,4.04996 a 0.45000906,0.44999519 0 0 0 0.318156,0.76815 z m 3.150075,3.14996 v -2.24997 h 1.800031 v 2.24997 z m 0.900006,-7.01363 2.700055,2.69997 v 2.06369 l 4.59e-4,2.24997 h -0.900466 v -2.24997 c 0,-0.49634 -0.403673,-0.89999 -0.900023,-0.89999 H 93.90472 c -0.496368,0 -0.900024,0.40365 -0.900024,0.89999 v 2.24997 h -0.900024 v -4.31366 z"
       id="path2353"
       style="stroke-width:0.450002" />
    <path
       d="m 109.91908,123.85221 a 2.6640769,2.9529859 0 0 0 -1.80314,-0.77926 2.6812238,2.9719923 0 0 0 -1.90104,0.87928 c -1.06174,1.18191 -1.0613,3.03053 9.1e-4,4.20741 l 3.30844,3.66722 c 0.0768,0.14953 0.22471,0.24609 0.39483,0.24609 a 0.44672021,0.49516532 0 0 0 0.35737,-0.20456 l 3.34588,-3.70875 c 1.06221,-1.17739 1.06221,-3.0255 -9e-4,-4.2094 a 2.6794187,2.9699915 0 0 0 -1.89923,-0.87729 2.6649794,2.9539863 0 0 0 -1.80312,0.77926 z m 3.06431,0.80527 c 0.70529,0.78576 0.70573,2.01318 9e-4,2.79493 l -3.06521,3.39762 -3.06523,-3.39762 c -0.70483,-0.78175 -0.70437,-2.00917 -9.1e-4,-2.79293 0.34295,-0.37813 0.79147,-0.58621 1.263,-0.58621 0.47154,0 0.91827,0.20808 1.25849,0.58521 l 0.22563,0.25008 a 0.4507813,0.49966682 0 0 0 0.63804,0 l 0.22561,-0.25008 c 0.68227,-0.75476 1.83832,-0.75275 2.51968,-10e-4 z"
       id="path2400"
       style="stroke-width:0.475069" />
    <g
       id="g2471"
       transform="matrix(0.45,0,0,0.45,119.77123,121.82636)">
      <path
         d="M 12,2 C 6.486,2 2,6.486 2,12 2,17.514 6.486,22 12,22 17.514,22 22,17.514 22,12 22,6.486 17.514,2 12,2 Z m 0,18 C 7.589,20 4,16.411 4,12 4,7.589 7.589,4 12,4 c 4.411,0 8,3.589 8,8 0,4.411 -3.589,8 -8,8 z"
         id="path2453" />
      <circle
         cx="8.5"
         cy="10.5"
         r="1.5"
         id="circle2455" />
      <circle
         cx="15.493"
         cy="10.493"
         r="1.493"
         id="circle2457" />
      <path
         d="m 12,18 c 4,0 5,-4 5,-4 H 7 c 0,0 1,4 5,4 z"
         id="path2459" />
    </g>
    <g
       id="g2561"
       transform="matrix(0.5625,0,0,0.45,88.192504,136.08914)">
      <circle
         cx="12"
         cy="4"
         r="2"
         id="circle2549" />
      <path
         d="M 15,22 V 9 h 5 V 7 H 4 v 2 h 5 v 13 h 2 v -7 h 2 v 7 z"
         id="path2551" />
    </g>
    <path
       d="m 109.29286,144.75506 0.94873,0.94871 4.49997,-4.5 -4.49997,-4.5 -0.94873,0.94871 2.88036,2.88036 h -6.43166 v 1.34186 h 6.43166 z"
       id="path2587"
       style="stroke-width:0.670941" />
    <g
       id="g2634"
       transform="matrix(0.45,0,0,0.45,119.92383,135.78396)">
      <path
         d="M 12,2 C 6.486,2 2,6.486 2,12 2,17.514 6.486,22 12,22 17.514,22 22,17.514 22,12 22,6.486 17.514,2 12,2 Z m 0,18 C 7.589,20 4,16.411 4,12 4,7.589 7.589,4 12,4 c 4.411,0 8,3.589 8,8 0,4.411 -3.589,8 -8,8 z"
         id="path2622" />
      <path
         d="m 13,7 h -2 v 6 h 6 v -2 h -4 z"
         id="path2624" />
    </g>
    <path
       d="m 129.11762,152.04568 h -7.36364 a 0.81818229,0.81818229 0 0 0 -0.81817,0.81819 v 4.0909 a 0.81818229,0.81818229 0 0 0 0.81817,0.81819 h 7.36364 a 0.81818229,0.81818229 0 0 0 0.81819,-0.81819 v -4.0909 a 0.81818229,0.81818229 0 0 0 -0.81819,-0.81819 z m -3.27272,0.81819 h 0.81818 v 0.81818 h -0.81818 z m 0,1.63636 h 0.81818 v 0.81818 h -0.81818 z m -1.63637,-1.63636 h 0.81819 v 0.81818 h -0.81819 z m 0,1.63636 h 0.81819 v 0.81818 h -0.81819 z m -1.63636,-1.63636 h 0.81819 v 0.81818 h -0.81819 z m 0,1.63636 h 0.81819 v 0.81818 h -0.81819 z m 4.90909,2.45454 h -4.0909 v -0.81817 h 4.0909 z m 0.81819,-1.63636 h -0.81819 v -0.81818 h 0.81819 z m 0,-1.63636 h -0.81819 v -0.81818 h 0.81819 z"
       id="path2660"
       style="stroke-width:0.409091" />
    <path
       d="m 98.552919,151.391 a 0.67485914,0.67500022 0 0 0 -0.67485,0.675 v 2.025 h -0.449918 v -2.92499 a 0.67485914,0.67500022 0 0 0 -1.349718,0 v 2.92499 h -0.449901 v -3.375 a 0.67485914,0.67500022 0 0 0 -1.349718,0 v 3.375 h -0.4499 v -2.475 a 0.674862,0.67500308 0 0 0 -1.349724,0 v 4.86451 l -0.998791,-1.62 a 0.67673169,0.67687317 0 0 0 -1.151761,0.711 l 1.48919,2.40299 a 2.2495305,2.2500008 0 0 0 1.912104,1.0665 h 3.248319 a 2.2495305,2.2500008 0 0 0 2.249525,-2.24999 V 152.066 a 0.67485914,0.67500022 0 0 0 -0.674857,-0.675 z"
       id="path2693"
       style="stroke-width:0.449953" />
    <path
       d="m 108.09181,159.02471 a 3.7061193,3.7061193 0 0 0 2.59429,-1.14426 l 2.77959,-2.77959 c 1.32957,-1.32957 1.53341,-3.29381 0.46326,-4.37785 -1.07013,-1.08404 -3.04827,-0.88484 -4.37785,0.46326 l -2.77959,2.77959 c -1.32956,1.32957 -1.5334,3.29381 -0.46326,4.37785 a 2.4923651,2.4923651 0 0 0 1.78356,0.681 z m -0.92651,-4.16938 1.28787,1.29251 0.65784,-0.65784 -1.29252,-1.2925 0.6532,-0.65321 1.31104,1.31104 0.65784,-0.65783 -1.31104,-1.31104 0.6532,-0.65321 1.31104,1.31104 0.65784,-0.65783 -1.29251,-1.28788 c 0.92653,-0.74586 2.15419,-0.86631 2.77959,-0.21774 0.62541,0.64858 0.50496,2.11249 -0.46326,3.06682 l -2.77959,2.77959 c -0.95433,0.94969 -2.35802,1.15816 -3.06681,0.46326 -0.70879,-0.6949 -0.49107,-1.88549 0.25479,-2.81665 z"
       id="path4238"
       style="stroke-width:0.463264" />
  </g>
</svg>
